<svg xmlns="http://www.w3.org/2000/svg" viewBox="0 0 120 120" width="120" height="120" role="img" aria-hidden="true">
  <defs>
    <linearGradient id="glow-eng" x1="20%" y1="0%" x2="80%" y2="100%"><stop offset="0%" stop-color="#0d9488" stop-opacity="0.4"/><stop offset="100%" stop-color="#0d1f4e" stop-opacity="0.08"/></linearGradient>
    <filter id="sh-eng" x="-30%" y="-30%" width="160%" height="160%">
      <feDropShadow dx="0" dy="8" stdDeviation="6" flood-color="#0d1f4e" flood-opacity="0.22"/>
    </filter>
    <filter id="sh2-eng" x="-20%" y="-20%" width="140%" height="140%">
      <feDropShadow dx="0" dy="3" stdDeviation="2" flood-color="#0d1f4e" flood-opacity="0.15"/>
    </filter>
  </defs>
  <ellipse cx="60" cy="108" rx="42" ry="7" fill="#0d1f4e" opacity="0.1"/>
  <ellipse cx="62" cy="50" rx="46" ry="40" fill="url(#glow-eng)"/>
    <g filter="url(#sh-eng)">
      <rect x="58" y="70" width="28" height="8" rx="2" fill="#f59e0b" opacity="0.9"/>
      <path d="M44 70 L58 58 L72 70 Z" fill="#ffffff" stroke="#0d1f4e" stroke-width="1.5"/>
      <circle cx="58" cy="52" r="11" fill="#f59e0b"/>
      <rect x="52" y="48" width="12" height="8" rx="2" fill="#0d1f4e" opacity="0.3"/>
      <rect x="72" y="44" width="24" height="32" rx="2" fill="#ffffff" stroke="#0d9488" stroke-width="2" transform="rotate(-8 84 60)"/>
      <path d="M76 52 L88 48 L90 68 L74 72 Z" fill="#93c5fd" opacity="0.35"/>
      <path d="M78 56h10M78 62h8M78 68h12" stroke="#1847d4" stroke-width="1.5" stroke-linecap="round"/>
      <rect x="34" y="78" width="18" height="5" rx="2" fill="#64748b" opacity="0.5"/>
    </g>
</svg>